<svg width="100" height="100" xmlns="http://www.w3.org/2000/svg">
    <!-- Background -->
    <rect x="0" y="0" width="100" height="100" fill="#f4f4f4" />

    <!-- Artistic Ground layers -->
    <path d="M 0 70 Q 25 65 50 70 T 100 70" fill="#8B4513" />
    <path d="M 0 80 Q 25 85 50 80 T 100 80" fill="#A0522D" />
    <path d="M 0 90 Q 25 95 50 90 T 100 90" fill="#D2691E" />
    <path d="M 0 100 L 100 100" fill="#D2691E" />

    <!-- Data dots -->
    <circle cx="20" cy="20" r="5" fill="#4CAF50" />
    <circle cx="50" cy="20" r="5" fill="#4CAF50" />
    <circle cx="80" cy="20" r="5" fill="#4CAF50" />
    <circle cx="35" cy="50" r="5" fill="#4CAF50" />
    <circle cx="65" cy="50" r="5" fill="#4CAF50" />

    <!-- Artistic Connections -->
    <path d="M 20 20 Q 35 5 50 20 T 80 20" stroke="#4CAF50" stroke-width="2" fill="none" />
    <path d="M 20 20 Q 27.5 35 35 50" stroke="#4CAF50" stroke-width="2" fill="none" />
    <path d="M 80 20 Q 72.5 35 65 50" stroke="#4CAF50" stroke-width="2" fill="none" />
    <path d="M 35 50 Q 50 40 65 50" stroke="#4CAF50" stroke-width="2" fill="none" />
    <path d="M 35 50 Q 42.5 35 50 20" stroke="#4CAF50" stroke-width="2" fill="none" />
    <path d="M 65 50 Q 57.5 35 50 20" stroke="#4CAF50" stroke-width="2" fill="none" />
</svg>